# xmcd
#
# Track frame offsets:
#	150
#	12947
#	27498
#	43343
#	56733
#	71376
#	86549
#	104707
#	116588
#	132374
#	149778
#	165305
#	182880
#	196750
#	208850
#	234265
#	249942
#	269295
#	284136
#
# Disc length: 4040 seconds
#
# Revision: 1
# Processed by: cddbd v1.5.2PL0 Copyright (c) Steve Scherf et al.
# Submitted via: audiograbber 1.82.02
#
DISCID=220fc613
DTITLE=Various Artist - Country Radio - July 2017
DYEAR=2017
DGENRE=Country
TTITLE0=Todd O'Neill - Love Again
TTITLE1=Jason Aldean - They Don't Know (PO Clean Edit)
TTITLE2=Russell Dickerson - Yours
TTITLE3=Waterloo Revival - What Guy Wouldn't
TTITLE4=Micks - Chasing Forever
TTITLE5=Jon Pardi - Heartache On The Dance Floor
TTITLE6=Linde LaChance - Where We'd Be
TTITLE7=Amy Jack - Bounce Back
TTITLE8=Aleyce Simmonds - Anchor
TTITLE9=Lindsay Ell - Waiting On You
TTITLE10=Josh Turner - All About You
TTITLE11=Ashleigh Dallas - Feel The Beat
TTITLE12=Chris Janson - Fix A Drink (PO Clean Edit)
TTITLE13=Josh Thompson - Daddy Had A Beer
TTITLE14=Wyatt Easterling f. Kate Rhudy - Carry The Load
TTITLE15=Joe Schmidt - Over Time
TTITLE16=Billy Ray Cyrus and The Silver Mullet Band - Achy Breaky Heart 25th
TTITLE17=Lauren Alaina - Doin' Fine
TTITLE18=Leslie Cours Mather - We Are America
EXTD=
EXTT0=
EXTT1=
EXTT2=
EXTT3=
EXTT4=
EXTT5=
EXTT6=
EXTT7=
EXTT8=
EXTT9=
EXTT10=
EXTT11=
EXTT12=
EXTT13=
EXTT14=
EXTT15=
EXTT16=
EXTT17=
EXTT18=
PLAYORDER=
